Coordinates
version=1
nRows=12
nColumns=33
inDegrees=yes

Units are S.I. units (second, meters, Newtons, ...)
Angles are in degrees.

endheader
time	ground_thorax_rot_x	ground_thorax_rot_y	ground_thorax_rot_z	ground_thorax_tx	ground_thorax_ty	ground_thorax_tz	clav_prot_r	clav_elev_r	scapula_abduction_r	scapula_elevation_r	scapula_upward_rot_r	scapula_winging_r	shoulder_elv_r	plane_of_elev_r	axial_rot_r	elbow_flexion_r	pro_sup_r	wrist_flex_r	wrist_dev_r	clav_prot_l	clav_elev_l	scapula_abduction_l	scapula_elevation_l	scapula_upward_rot_l	scapula_winging_l	shoulder_elv_l	plane_of_elev_l	axial_rot_l	elbow_flexion_l	pro_sup_l	wrist_flex_l	wrist_dev_l
      2.90000000	     31.23285655	     26.58442832	     36.68734268	    -89.03739476	    851.21758563	    -49.85389245	     12.72661725	     33.78903369	     26.79927007	     45.00000000	    -45.00000000	    990.67688997	   2772.28713586	    156.97087625	      9.22004453	   1798.02766198	    525.02486412	     17.94439503	     12.96867085	     -6.50325708	    -45.00000000	    -39.18134028	     45.00000000	    -45.00000000	   5506.44223300	  -5682.04218607	     26.18831985	     29.97837658	   1070.21449978	     45.94295371	     11.70687315	    -24.09932107
      2.91000000	     31.21291748	     26.65182729	     36.84176983	    -88.45644044	    850.72684738	    -49.76552453	     12.68378615	     33.77497760	     26.84138465	     45.00000000	    -45.00000000	    990.60134821	   2772.21607315	    156.83832166	      8.90146967	   1798.14674853	    525.69067340	     18.04745759	     12.96759384	     -6.42976611	    -45.00000000	    -39.15392061	     45.00000000	    -45.00000000	   5506.28758207	  -5681.96563754	     26.11250472	     30.00065320	   1070.25238667	     46.19319481	     11.60385745	    -24.05173482
      2.92000000	     31.20261335	     26.65148485	     36.97774254	    -87.82096060	    850.29457184	    -49.67604594	     12.72260088	     33.84229398	     26.96224736	     45.00000000	    -45.00000000	    990.73288292	   2772.22642181	    156.93547128	      8.77978683	   1798.20506483	    526.21722222	     18.13309049	     12.84908143	     -6.51119039	    -45.00000000	    -39.22289466	     45.00000000	    -45.00000000	   5506.33399600	  -5682.01954616	     26.18137183	     30.14477144	   1070.27239113	     46.31698434	     11.65559098	    -24.07056957
      2.93000000	     31.22467912	     26.69460215	     37.10343175	    -87.12151734	    849.91808012	    -49.59471410	     12.73658064	     33.79808901	     27.02074536	     45.00000000	    -45.00000000	    990.63366403	   2772.20402284	    156.77183253	      8.63821230	   1798.31782098	    526.63291196	     18.18381360	     12.88113610	     -6.45734470	    -45.00000000	    -39.17766621	     45.00000000	    -45.00000000	   5506.14868439	  -5681.97366985	     26.10804887	     30.24750710	   1070.26341523	     46.33295877	     11.59052552	    -24.04624508
      2.94000000	     31.22330039	     26.68234924	     37.19611629	    -86.34967496	    849.59464408	    -49.52916008	     12.75621114	     33.90990440	     27.11231770	     45.00000000	    -45.00000000	    990.77083652	   2772.23829962	    156.85744733	      8.46103989	   1798.29776837	    526.94770756	     18.25858880	     12.80867804	     -6.52081512	    -45.00000000	    -39.26060751	     45.00000000	    -45.00000000	   5506.18746877	  -5682.04523517	     26.24335621	     30.46070610	   1070.28153654	     46.30738035	     11.72413041	    -24.01868394
      2.95000000	     31.19445814	     26.73536146	     37.37931834	    -85.50030772	    849.32119956	    -49.48365116	     12.78766498	     33.80288394	     27.21652309	     45.00000000	    -45.00000000	    990.65531504	   2772.18474463	    156.70392580	      8.27573922	   1798.40630319	    527.18984162	     18.27838693	     12.87168195	     -6.47627451	    -45.00000000	    -39.23402027	     45.00000000	    -45.00000000	   5505.98058912	  -5681.95049070	     26.15791387	     30.65018402	   1070.25504867	     46.19228907	     11.65901784	    -23.98138600
      2.96000000	     31.21755109	     26.69114315	     37.44600863	    -84.56950568	    849.09359628	    -49.45790559	     12.79367408	     33.99812931	     27.32804957	     45.00000000	    -45.00000000	    990.83423302	   2772.23963767	    156.80986150	      8.07987061	   1798.36878450	    527.35010995	     18.34118595	     12.81010885	     -6.53852569	    -45.00000000	    -39.29285448	     45.00000000	    -45.00000000	   5506.02386802	  -5682.04724676	     26.33099055	     30.93761052	   1070.27976894	     46.08877073	     11.86825575	    -23.91682067
      2.97000000	     31.16560307	     26.74682188	     37.65493468	    -83.55461566	    848.90731027	    -49.44852835	     12.85886580	     33.77103159	     27.43110141	     45.00000000	    -45.00000000	    990.67170709	   2772.15982218	    156.59465785	      7.87624456	   1798.47840494	    527.47075827	     18.32062596	     12.92161972	     -6.53663736	    -45.00000000	    -39.21302437	     45.00000000	    -45.00000000	   5505.75448896	  -5681.88335809	     26.23532170	     31.19597950	   1070.22178230	     45.88952417	     11.77558585	    -23.86736815
      2.98000000	     31.21086021	     26.66071090	     37.68598167	    -82.45510987	    848.75826171	    -49.45090501	     12.84904925	     34.13405330	     27.59842990	     45.00000000	    -45.00000000	    990.92190442	   2772.22545024	    156.78162891	      7.65814103	   1798.40222440	    527.51305056	     18.39904062	     12.84832304	     -6.60677683	    -45.00000000	    -39.24709935	     45.00000000	    -45.00000000	   5505.81278063	  -5682.00808468	     26.46487928	     31.55704770	   1070.26924300	     45.74384460	     12.07929031	    -23.76949074
      2.99000000	     31.09919826	     26.76478595	     37.95959080	    -81.27057052	    848.64192179	    -49.46069003	     12.95771798	     33.69068508	     27.65046630	     45.00000000	    -45.00000000	    990.68007659	   2772.11567132	    156.46047323	      7.46098209	   1798.53596303	    527.54095600	     18.31829872	     13.01771338	     -6.63099752	    -45.00000000	    -39.17540092	     45.00000000	    -45.00000000	   5505.48538130	  -5681.78877607	     26.33991877	     31.88505020	   1070.17084205	     45.48101032	     11.92838906	    -23.73120169
      3.00000000	     31.18205829	     26.61896860	     37.93087541	    -80.00405566	    848.55413127	    -49.47493718	     12.90336704	     34.32295655	     27.89728469	     45.00000000	    -45.00000000	    991.04007515	   2772.20156364	    156.77988346	      7.23512424	   1798.40367533	    527.48071631	     18.43818721	     12.91801678	     -6.65992396	    -45.00000000	    -39.18706692	     45.00000000	    -45.00000000	   5505.57686361	  -5681.95446204	     26.64550112	     32.30810712	   1070.25361602	     45.32674007	     12.34328656	    -23.59768382
      3.01000000	     31.18461297	     26.70243051	     38.08513979	    -78.65817962	    848.48976721	    -49.49242748	     12.91335189	     34.05581898	     27.87272489	     45.00000000	    -45.00000000	    990.85691946	   2772.18660825	    156.46063707	      7.00047519	   1798.43695958	    527.40393437	     18.37496184	     13.07555826	     -6.71375616	    -45.00000000	    -39.19993301	     45.00000000	    -45.00000000	   5505.32766108	  -5681.93830338	     26.60622885	     32.78869306	   1070.12362007	     45.00736537	     12.27255145	    -23.82456717
